<svg id="_x31__x2C_5" enable-background="new 0 0 24 24" height="512" viewBox="0 0 24 24" width="512" xmlns="http://www.w3.org/2000/svg"><path d="m19.25 9.5h-14.5c-.414 0-.75-.336-.75-.75s.336-.75.75-.75h14.5c.414 0 .75.336.75.75s-.336.75-.75.75z"/><path d="m13.3 13.5h-8.55c-.414 0-.75-.336-.75-.75s.336-.75.75-.75h8.55c.414 0 .75.336.75.75s-.336.75-.75.75z"/><path d="m10.95 17.5h-6.2c-.414 0-.75-.336-.75-.75s.336-.75.75-.75h6.2c.414 0 .75.336.75.75s-.336.75-.75.75z"/><path d="m18.5 24c-3.032 0-5.5-2.468-5.5-5.5s2.468-5.5 5.5-5.5 5.5 2.468 5.5 5.5-2.468 5.5-5.5 5.5zm0-9.5c-2.206 0-4 1.794-4 4s1.794 4 4 4 4-1.794 4-4-1.794-4-4-4z"/><path d="m18.022 20.5c-.196 0-.385-.077-.525-.215l-1.272-1.25c-.296-.29-.3-.766-.01-1.061.289-.295.766-.301 1.061-.01l.711.698 1.704-1.912c.275-.309.749-.337 1.059-.061.31.275.337.749.061 1.059l-2.228 2.5c-.136.153-.329.244-.534.251-.01.001-.019.001-.027.001z"/><path d="m11.26 22h-8.51c-1.517 0-2.75-1.233-2.75-2.75v-16.5c0-1.517 1.233-2.75 2.75-2.75h18.5c1.517 0 2.75 1.233 2.75 2.75v9.63c0 .414-.336.75-.75.75s-.75-.336-.75-.75v-9.63c0-.689-.561-1.25-1.25-1.25h-18.5c-.689 0-1.25.561-1.25 1.25v16.5c0 .689.561 1.25 1.25 1.25h8.51c.414 0 .75.336.75.75s-.336.75-.75.75z"/><path d="m23.25 5h-22.5c-.414 0-.75-.336-.75-.75s.336-.75.75-.75h22.5c.414 0 .75.336.75.75s-.336.75-.75.75z"/></svg>