<svg height="512" viewBox="0 0 56 56" width="512" xmlns="http://www.w3.org/2000/svg"><g id="Page-1" fill="none" fill-rule="evenodd"><g id="081---Clock" fill="rgb(0,0,0)" fill-rule="nonzero"><circle id="Oval" cx="26" cy="26" r="2"/><path id="Shape" d="m42 26c3.5418428.0006601 6.9820676 1.1838862 9.775 3.362.7082091-5.3245815-.2647822-10.7373917-2.783-15.482l-1.707.986c-.3095704.1814844-.6926495.1831833-1.0038174.0044519-.311168-.1787315-.5027136-.5104885-.5019247-.8693336s.1937913-.6897567.5057421-.8671183l1.7-.984c-2.07475-3.28226887-4.8534963-6.06203991-8.135-8.138l-.984 1.7c-.2780058.47421361-.886647.63512861-1.3626943.36027453s-.640996-.88241457-.3693057-1.36027453l.986-1.708c-3.4352794-1.81710742-7.2363927-2.83540927-11.12-2.979v1.975c0 .55228475-.4477153 1-1 1s-1-.44771525-1-1v-1.975c-3.8839203.14482752-7.685051 1.16450135-11.12 2.983l.986 1.708c.1814844.30957042.1831833.69264947.0044519 1.00381742-.1787315.31116795-.5104885.50271357-.8693336.50192468-.3588451-.00078888-.6897567-.19379132-.8671183-.5057421l-.984-1.7c-3.28216097 2.07446305-6.06192356 4.85285932-8.138 8.134l1.7.984c.31195078.1773616.50495322.5082732.5057421.8671183.00078889.3588451-.19075673.6906021-.50192468.8693336-.31116795.1787314-.694247.1770325-1.00381742-.0044519l-1.704-.986c-1.81849865 3.434949-2.83817248 7.2360797-2.983 11.12h1.975c.55228475 0 1 .4477153 1 1s-.44771525 1-1 1h-1.975c.14482752 3.8839203 1.16450135 7.685051 2.983 11.12l1.707-.986c.30957042-.1814844.69264947-.1831833 1.00381742-.0044519.31116795.1787315.50271357.5104885.50192468.8693336-.00078888.3588451-.19379132.6897567-.5057421.8671183l-1.7.984c2.07561097 3.2825926 4.85540737 6.062389 8.138 8.138l.984-1.7c.2780058-.4742136.886647-.6351286 1.3626943-.3602745.4760473.274854.640996.8824145.3693057 1.3602745l-.986 1.708c3.7326756 1.9768762 7.8931525 3.0083256 12.117 3.004 1.1243147-.0023754 2.247308-.0771971 3.362-.224-3.7466084-4.8197889-4.4183811-11.353553-1.7308866-16.8348679s8.264189-8.9514489 14.3688866-8.9411321zm-22.463 10.707c-1.1722244 1.1719482-3.0725517 1.1717243-4.2445-.0005-1.1719482-1.1722244-1.1717244-3.0725518.0005-4.2445l6.734-6.734c.0582579-.8675494.400147-1.6918781.973-2.346v-14.382c0-1.65685425 1.3431458-3 3-3 1.6529917.00928822 2.9907118 1.34700835 3 3v14.382c1.0082816 1.1351984 1.2797565 2.7465064.6990973 4.1494113-.5806591 1.4029049-1.9114766 2.3510277-3.4270973 2.4415887z"/><path id="Shape" d="m27 22.142v-13.142c.0026276-.26092243-.1014015-.51160366-.288-.694-.185071-.19569197-.4426555-.30639544-.712-.306-.5522847 0-1 .44771525-1 1v13.142c.653223-.1893403 1.346777-.1893403 2 0z"/><path id="Shape" d="m22.566 28.018-5.859 5.859c-.3824301.3941475-.3824301 1.0208525 0 1.415.3963579.3779051 1.0196421.3779051 1.416 0l5.859-5.859c-.5843024-.3440265-1.0715608-.8309408-1.416-1.415z"/><path id="Shape" d="m42 28c-7.7319865 0-14 6.2680135-14 14s6.2680135 14 14 14 14-6.2680135 14-14c-.0082673-7.7285595-6.2714405-13.9917327-14-14zm6 18.5c-.1052769 2.7905788-2.2267656 5.0889996-5 5.417v.083c0 .5522847-.4477153 1-1 1s-1-.4477153-1-1v-.083c-2.7732344-.3280004-4.8947231-2.6264212-5-5.417 0-.5522847.4477153-1 1-1s1 .4477153 1 1c.0897151 1.6875012 1.3347396 3.0885687 3 3.376v-6.959c-2.7732344-.3280004-4.8947231-2.6264212-5-5.417.1052769-2.7905788 2.2267656-5.0889996 5-5.417v-.083c0-.5522847.4477153-1 1-1s1 .4477153 1 1v.083c2.7732344.3280004 4.8947231 2.6264212 5 5.417 0 .5522847-.4477153 1-1 1s-1-.4477153-1-1c-.0897151-1.6875012-1.3347396-3.0885687-3-3.376v6.959c2.7732344.3280004 4.8947231 2.6264212 5 5.417z"/><path id="Shape" d="m43 49.876c1.7096317-.2042173 2.9967333-1.6542145 2.9967333-3.376s-1.2871016-3.1717827-2.9967333-3.376z"/><path id="Shape" d="m38 37.5c.0897151 1.6875012 1.3347396 3.0885687 3 3.376v-6.752c-1.6652604.2874313-2.9102849 1.6884988-3 3.376z"/></g></g></svg>