<?xml version="1.0"?>
<svg xmlns="http://www.w3.org/2000/svg" viewBox="0 0 512 512" width="512" height="512"><g id="Solid"><path d="M349.657,261.657a8,8,0,0,1-11.314,0L324.687,248H224a8,8,0,0,1-8-8V200H179.313l-13.656,13.657a8,8,0,0,1-11.314,0L140.687,200H120V464a16.019,16.019,0,0,0,16,16H376a16.019,16.019,0,0,0,16-16V248H363.313ZM264,464H248V448h16Zm80-96a24.028,24.028,0,0,1-24,24h-8v8a24.028,24.028,0,0,1-24,24H256V408h32a8.009,8.009,0,0,0,8-8V336a40,40,0,0,0-80,0v48a8,8,0,0,1-8,8H192a24.028,24.028,0,0,1-24-24V352a24.028,24.028,0,0,1,24-24h8.569a56,56,0,0,1,110.85,0H320a24.028,24.028,0,0,1,24,24Z"/><path d="M149.657,186.343,160,196.687l10.343-10.344A8,8,0,0,1,176,184h40V144a8,8,0,0,1,8-8h56V104H72v80h72A8,8,0,0,1,149.657,186.343ZM136,120h64v16H136Zm-32,0h16v16H104ZM88,152H200v16H88Z"/><path d="M320,344h-8v32h8a8.009,8.009,0,0,0,8-8V352A8.009,8.009,0,0,0,320,344Z"/><path d="M232,152v80h96a8,8,0,0,1,5.657,2.343L344,244.687l10.343-10.344A8,8,0,0,1,360,232h80V152Zm32,16h16v16H264Zm160,48H248V200H424Zm0-32H296V168H424Z"/><path d="M296,96v40h96V48a16.019,16.019,0,0,0-16-16H136a16.019,16.019,0,0,0-16,16V88H288A8,8,0,0,1,296,96ZM248,64H232V48h16Zm32,0H264V48h16Z"/><path d="M184,352v16a8.009,8.009,0,0,0,8,8h8V344h-8A8.009,8.009,0,0,0,184,352Z"/></g></svg>
