<?xml version="1.0" encoding="iso-8859-1"?>
<!-- Generator: Adobe Illustrator 19.0.0, SVG Export Plug-In . SVG Version: 6.00 Build 0)  -->
<svg version="1.1" id="Capa_1" xmlns="http://www.w3.org/2000/svg" xmlns:xlink="http://www.w3.org/1999/xlink" x="0px" y="0px"
	 viewBox="0 0 448.051 448.051" style="enable-background:new 0 0 448.051 448.051;" xml:space="preserve">
<g>
	<g>
		<rect x="56.026" y="168.051" width="16" height="16"/>
	</g>
</g>
<g>
	<g>
		<rect x="56.026" y="136.051" width="16" height="16"/>
	</g>
</g>
<g>
	<g>
		<rect x="56.026" y="104.051" width="16" height="16"/>
	</g>
</g>
<g>
	<g>
		<rect x="56.026" y="72.051" width="16" height="16"/>
	</g>
</g>
<g>
	<g>
		<rect x="56.026" y="40.051" width="16" height="16"/>
	</g>
</g>
<g>
	<g>
		<rect x="88.026" y="40.051" width="16" height="16"/>
	</g>
</g>
<g>
	<g>
		<rect x="120.026" y="40.051" width="16" height="16"/>
	</g>
</g>
<g>
	<g>
		<rect x="152.026" y="40.051" width="16" height="16"/>
	</g>
</g>
<g>
	<g>
		<rect x="184.026" y="40.051" width="16" height="16"/>
	</g>
</g>
<g>
	<g>
		<polygon points="372.778,270.619 424.026,257.811 424.026,244.995 		"/>
	</g>
</g>
<g>
	<g>
		<path d="M16.026,216.051c-8.837,0-16,7.163-16,16v76.448c4.843-2.879,10.366-4.415,16-4.448h112v-88H16.026z"/>
	</g>
</g>
<g>
	<g>
		<path d="M386.89,180.659l-7.944-55.616c-9.933,13.087-22.137,24.281-36.032,33.048c-3.995,2.788-8.288,5.122-12.8,6.96
			c5.638,13.314,17.109,23.278,31.08,27h20.96c1.128,0,2.208,0.2,3.312,0.288C386.958,188.639,387.45,184.61,386.89,180.659z"/>
	</g>
</g>
<g>
	<g>
		<rect x="24.026" y="320.051" width="104" height="32"/>
	</g>
</g>
<g>
	<g>
		<path d="M0.026,384.051c0.017,5.691,3.066,10.941,8,13.776v-27.552C3.092,373.111,0.043,378.361,0.026,384.051z"/>
	</g>
</g>
<g>
	<g>
		<path d="M0.026,336.051c0.017,5.691,3.066,10.941,8,13.776v-27.552C3.092,325.111,0.043,330.361,0.026,336.051z"/>
	</g>
</g>
<g>
	<g>
		<rect x="24.026" y="368.051" width="104" height="32"/>
	</g>
</g>
<g>
	<g>
		<path d="M317.866,152.339c5.666-1.533,11.028-4.022,15.856-7.36c18.4-12.896,30.552-23.696,36.928-37.776L265.186,63.771
			l-28.712,41.024c6.048,15.256,18.4,26.584,37.848,40.184c4.824,3.339,10.184,5.828,15.848,7.36c4.171,1.169,6.653,5.446,5.6,9.648
			c-4.781,19.238-18.359,35.092-36.632,42.776c13.423,8.343,29.115,12.289,44.888,11.288c15.773,0.999,31.464-2.947,44.888-11.288
			c-18.28-7.68-31.863-23.535-36.648-42.776C311.212,157.785,313.695,153.509,317.866,152.339z"/>
	</g>
</g>
<g>
	<g>
		<rect x="24.026" y="416.051" width="104" height="32"/>
	</g>
</g>
<g>
	<g>
		<path d="M0.026,432.051c0.017,5.691,3.066,10.941,8,13.776v-27.552C3.092,421.111,0.043,426.361,0.026,432.051z"/>
	</g>
</g>
<g>
	<g>
		<path d="M355.154,20.139C340.532,6.333,320.91-0.908,300.826,0.091c-38.648,1.826-68.989,33.789-68.8,72.48v7.2
			c0,1.144,0.152,2.12,0.192,3.2l23.536-33.624c2.148-3.068,6.137-4.234,9.6-2.808l109.76,45.192c0.604-3.971,0.909-7.983,0.912-12
			v-8.192C376.354,52.279,368.816,33.718,355.154,20.139z"/>
	</g>
</g>
<g>
	<g>
		<path d="M424.026,304.051v-29.752l-112,28v143.504l112-28v-49.752c-13.255,0-24-10.745-24-24v-16
			C400.026,314.796,410.771,304.051,424.026,304.051z"/>
	</g>
</g>
<g>
	<g>
		<path d="M405.626,227.019c-2.419-11.037-12.173-18.919-23.472-18.968h-15.88c-7.048,15.776-34.768,24-62.248,24
			c-27.48,0-55.2-8.224-62.248-24h-15.88c-11.303,0.047-21.059,7.934-23.472,18.976l-1.792,8.384l103.392,51.696l103.392-51.696
			L405.626,227.019z"/>
	</g>
</g>
<g>
	<g>
		<path d="M440.026,320.051h-16c-4.418,0-8,3.582-8,8v16c0,4.418,3.582,8,8,8h16c4.418,0,8-3.582,8-8v-16
			C448.026,323.633,444.444,320.051,440.026,320.051z"/>
	</g>
</g>
<g>
	<g>
		<path d="M265.146,158.091c-13.897-8.767-26.104-19.961-36.04-33.048l-7.944,55.616c-0.56,3.951-0.069,7.979,1.424,11.68
			c1.104-0.088,2.184-0.288,3.312-0.288h20.96c13.974-3.72,25.448-13.684,31.088-27C273.433,163.215,269.14,160.881,265.146,158.091
			z"/>
	</g>
</g>
<g>
	<g>
		<polygon points="184.026,244.995 184.026,257.811 235.274,270.619 		"/>
	</g>
</g>
<g>
	<g>
		<path d="M184.026,274.299v29.752c13.255,0,24,10.745,24,24v16c0,13.255-10.745,24-24,24v49.752l112,28V302.299L184.026,274.299z"
			/>
	</g>
</g>
<g>
	<g>
		<path d="M184.026,320.051h-16c-4.418,0-8,3.582-8,8v16c0,4.418,3.582,8,8,8h16c4.418,0,8-3.582,8-8v-16
			C192.026,323.633,188.444,320.051,184.026,320.051z"/>
	</g>
</g>
<g>
</g>
<g>
</g>
<g>
</g>
<g>
</g>
<g>
</g>
<g>
</g>
<g>
</g>
<g>
</g>
<g>
</g>
<g>
</g>
<g>
</g>
<g>
</g>
<g>
</g>
<g>
</g>
<g>
</g>
</svg>
